<svg width="850" height="317" viewBox="0 0 850 317" fill="none" xmlns="http://www.w3.org/2000/svg">
<rect x="5.5" y="44.5" width="839" height="189" rx="21.5" fill="white" stroke="black" stroke-width="11"/>
<path d="M98.5 25.5V44.5H58.5V25.5C58.5 14.4543 67.4543 5.5 78.5 5.5C89.5457 5.5 98.5 14.4543 98.5 25.5Z" fill="white" stroke="black" stroke-width="11"/>
<path d="M791.5 25.5V44.5H751.5V25.5C751.5 14.4543 760.454 5.5 771.5 5.5C782.546 5.5 791.5 14.4543 791.5 25.5Z" fill="white" stroke="black" stroke-width="11"/>
<mask id="path-4-inside-1_1_27" fill="white">
<rect x="746" y="228" width="51" height="89" rx="5"/>
</mask>
<rect x="746" y="228" width="51" height="89" rx="5" fill="white" stroke="black" stroke-width="22" mask="url(#path-4-inside-1_1_27)"/>
<mask id="path-5-inside-2_1_27" fill="white">
<rect x="53" y="228" width="51" height="89" rx="5"/>
</mask>
<rect x="53" y="228" width="51" height="89" rx="5" fill="white" stroke="black" stroke-width="22" mask="url(#path-5-inside-2_1_27)"/>
</svg>
